Coordinates
version=1
nRows=14
nColumns=40
inDegrees=yes

Units are S.I. units (second, meters, Newtons, ...)
Angles are in degrees.

endheader
time	pelvis_tilt	pelvis_list	pelvis_rotation	pelvis_tx	pelvis_ty	pelvis_tz	hip_flexion_r	hip_adduction_r	hip_rotation_r	knee_angle_r	knee_angle_r_beta	ankle_angle_r	subtalar_angle_r	mtp_angle_r	hip_flexion_l	hip_adduction_l	hip_rotation_l	knee_angle_l	knee_angle_l_beta	ankle_angle_l	subtalar_angle_l	mtp_angle_l	lumbar_extension	lumbar_bending	lumbar_rotation	arm_flex_r	arm_add_r	arm_rot_r	elbow_flex_r	pro_sup_r	wrist_flex_r	wrist_dev_r	arm_flex_l	arm_add_l	arm_rot_l	elbow_flex_l	pro_sup_l	wrist_flex_l	wrist_dev_l
      4.38500000	     -2.19757624	      0.04620995	     -2.55461741	      1.00290849	      0.91843710	      0.43744766	     29.53504526	     -5.97462389	    -14.85041988	     12.56301561	     12.56301561	      4.35146653	      2.60762813	     13.78645093	     -3.31076483	      1.57122359	    -14.94350002	     11.67175182	     11.67175182	     19.97034038	      0.76374096	     -8.47068033	     -9.61874001	      0.30479859	     -1.08245005	    -22.87625424	    -15.29908855	    -18.08625752	     22.51264240	     47.62422446	      0.00000000	      0.00000000	     25.87828346	    -18.36190863	     -4.09576565	     68.47858647	     47.24386457	      0.00000000	      0.00000000
      4.39650000	     -2.26038351	     -0.10327522	     -2.31248515	      1.00410043	      0.91674382	      0.43889838	     29.14071136	     -5.53209473	    -14.90800095	     11.94062459	     11.94062459	      4.34060416	      2.98309893	     13.72684771	     -3.88704327	      1.26826602	    -14.65553944	     11.86564680	     11.86564680	     20.46872393	      0.78278000	     -8.40175014	     -9.43671114	      0.46146654	     -0.88297592	    -23.88433228	    -15.14128403	    -18.16925607	     22.32448483	     47.62065588	      0.00000000	      0.00000000	     26.13164243	    -18.19239135	     -4.25817081	     69.78573699	     47.28250400	      0.00000000	      0.00000000
      4.40800000	     -2.39582361	     -0.17163297	     -2.05231700	      1.00537607	      0.91499018	      0.44043272	     29.00051894	     -5.27976119	    -14.86375533	     12.02863042	     12.02863042	      4.29221804	      3.01131789	     13.61732105	     -4.42511826	      1.04268705	    -14.37293629	     11.95785387	     11.95785387	     20.85243621	      0.83790932	     -8.47147181	     -9.09926527	      0.53613815	     -1.04132288	    -24.47658763	    -15.06841801	    -18.20574174	     22.16932903	     47.62302167	      0.00000000	      0.00000000	     26.32683216	    -18.32445825	     -4.35700666	     70.20092965	     47.29847045	      0.00000000	      0.00000000
      4.41950000	     -2.37884337	     -0.40840678	     -1.77792432	      1.00690016	      0.91345477	      0.44223993	     28.56566462	     -4.83369747	    -14.64887794	     12.11762327	     12.11762327	      2.61768111	      2.20371997	      9.58871681	     -4.88923682	      0.46924132	    -14.49554141	     12.68084881	     12.68084881	     22.05241515	      1.71699342	     -6.93043465	     -9.13373820	      0.77615769	     -1.45284842	    -25.27741734	    -14.96457585	    -18.74654975	     23.63887651	     47.55677951	      0.00000000	      0.00000000	     24.70959987	    -18.88360373	     -4.98762161	     75.17163019	     47.43400051	      0.00000000	      0.00000000
      4.43100000	     -2.39431777	     -0.65580244	     -1.49712428	      1.00838628	      0.91209141	      0.44409253	     28.42827456	     -4.54265300	    -14.62503589	     13.00502385	     13.00502385	      1.98214755	      1.65591043	      8.71603069	     -5.40198754	     -0.04956566	    -14.25134465	     13.11684515	     13.11684515	     22.43549466	      1.74341706	     -6.80053631	     -9.00169594	      1.03146237	     -1.23223989	    -25.67431770	    -14.75723506	    -18.70420753	     23.41198466	     47.55124128	      0.00000000	      0.00000000	     24.78086459	    -18.56551286	     -5.15391658	     75.93377196	     47.46313134	      0.00000000	      0.00000000
      4.44250000	     -2.41320380	     -0.83350268	     -1.17317706	      1.01019296	      0.91071801	      0.44615620	     28.01146232	     -4.21144991	    -14.21711919	     13.31386139	     13.31386139	     -1.20499314	     -0.15656542	      1.25713994	     -5.75869170	     -0.66560207	    -14.52676544	     13.99818336	     13.99818336	     23.63656265	      2.91443058	     -5.09094602	     -8.84656074	      1.15516366	     -1.67839896	    -25.53350642	    -14.66153079	    -18.48355868	     23.27744287	     47.46182253	      0.00000000	      0.00000000	     23.76925692	    -18.71273596	     -6.10652074	     78.33842607	     47.61145001	      0.00000000	      0.00000000
      4.45400000	     -2.47205059	     -1.07486015	     -0.87376322	      1.01185781	      0.90965728	      0.44834436	     28.05476542	     -3.99178635	    -14.00561724	     14.67551595	     14.67551595	     -1.92327671	     -1.30983343	      0.42388606	     -6.13096031	     -1.27332043	    -14.35767121	     14.61048140	     14.61048140	     23.87554185	      3.08922891	     -5.08133535	     -8.64114674	      1.36306994	     -1.55544851	    -25.53095487	    -14.36261438	    -18.43330186	     23.26543855	     47.44538969	      0.00000000	      0.00000000	     23.42433318	    -18.55289414	     -6.08414240	     79.28305791	     47.63231365	      0.00000000	      0.00000000
      4.46550000	     -2.44079183	     -1.41890370	     -0.58448738	      1.01371385	      0.90895632	      0.45075077	     27.82990608	     -3.58552443	    -13.60426544	     15.70129003	     15.70129003	     -3.24098388	     -3.00564743	     -1.98605327	     -6.47521435	     -2.12136416	    -14.60737101	     15.54620812	     15.54620812	     24.33714228	      3.87707447	     -4.74760490	     -8.58849037	      1.68441045	     -1.89440496	    -24.97163448	    -14.26642349	    -18.33432782	     23.30070661	     47.41179941	      0.00000000	      0.00000000	     22.31696572	    -18.76679077	     -6.51807383	     81.10157836	     47.70778088	      0.00000000	      0.00000000
      4.47700000	     -2.38293255	     -1.68600618	     -0.31506856	      1.01557592	      0.90857088	      0.45319643	     27.83063949	     -3.41495682	    -13.59497307	     17.32173957	     17.32173957	     -3.41026445	     -3.78949268	     -2.60588847	     -6.86263662	     -2.80405999	    -14.38769767	     16.35827321	     16.35827321	     24.36787337	      3.84097258	     -4.79854556	     -8.51944061	      1.88937083	     -1.73305453	    -24.54184070	    -14.01926738	    -18.22917114	     23.30094240	     47.39949253	      0.00000000	      0.00000000	     21.88755678	    -18.49985335	     -6.59258179	     81.43882328	     47.72088598	      0.00000000	      0.00000000
      4.48850000	     -2.25915978	     -2.01199680	     -0.08976306	      1.01764466	      0.90891434	      0.45581894	     27.47789448	     -3.10890415	    -13.65947077	     18.42387749	     18.42387749	     -3.43749266	     -4.25178085	     -2.87409513	     -7.38874974	     -3.53187916	    -14.19040079	     17.03095020	     17.03095020	     24.15648530	      3.74798390	     -4.82050947	     -8.52592321	      2.22461634	     -1.51651418	    -23.88361769	    -13.65713453	    -18.13990580	     23.46849723	     47.38710688	      0.00000000	      0.00000000	     21.24040194	    -18.15438849	     -6.49582347	     81.46898789	     47.71247956	      0.00000000	      0.00000000
      4.50000000	     -2.31410895	     -2.31618394	      0.13149158	      1.01940996	      0.90888385	      0.45881650	     27.56358895	     -2.74195165	    -13.21912026	     19.90227340	     19.90227340	     -3.26690648	     -5.82773777	     -3.41191303	     -7.14770788	     -4.53989358	    -14.47352058	     18.82243351	     18.82243351	     23.95264005	      4.23953789	     -5.81402100	     -8.41515190	      2.40838438	     -2.09844048	    -22.41379570	    -13.73654045	    -17.50405564	     23.04252474	     47.33499603	      0.00000000	      0.00000000	     19.54282015	    -18.33389199	     -7.63796842	     83.24350179	     47.83351215	      0.00000000	      0.00000000
      4.51150000	     -2.29394143	     -2.61409338	      0.29087070	      1.02131512	      0.90955267	      0.46186792	     27.36790562	     -2.40120973	    -13.16883002	     21.06546893	     21.06546893	     -2.65406344	     -6.35911502	     -3.60380840	     -7.04741035	     -5.38469638	    -14.20289790	     20.41611390	     20.41611390	     23.42109218	      3.69157794	     -6.29735793	     -8.35008249	      2.62976226	     -1.91003049	    -21.38075428	    -13.45221888	    -17.28268867	     23.28427182	     47.30775454	      0.00000000	      0.00000000	     18.76964221	    -18.06466671	     -7.63098372	     83.08355684	     47.82995046	      0.00000000	      0.00000000
      4.52300000	     -2.05681391	     -2.87553385	      0.37896748	      1.02340522	      0.91091822	      0.46507964	     26.77571872	     -2.02413727	    -13.13573221	     21.95642869	     21.95642869	     -1.84245726	     -6.71718668	     -3.80571374	     -7.12339286	     -6.19866637	    -13.95689852	     22.12768634	     22.12768634	     22.66771780	      3.07578357	     -6.74777110	     -8.53974037	      2.81004923	     -1.60866144	    -20.23823850	    -13.20591832	    -17.12170742	     23.63744751	     47.28506167	      0.00000000	      0.00000000	     17.90836914	    -17.74934917	     -7.55758267	     82.79491921	     47.81669822	      0.00000000	      0.00000000
      4.53450000	     -2.19552148	     -3.17288714	      0.47953458	      1.02506494	      0.91196343	      0.46845656	     26.62042275	     -1.56324829	    -12.95865232	     22.87648445	     22.87648445	     -0.27533634	     -7.00322755	     -1.76617844	     -6.47586276	     -7.08760100	    -13.46936091	     24.10031745	     24.10031745	     19.82024585	      1.19163507	    -11.97895896	     -8.30088841	      2.96288879	     -2.16915572	    -18.33308384	    -13.19644201	    -15.67510290	     23.73475352	     47.14085071	      0.00000000	      0.00000000	     16.09852187	    -17.61785122	     -8.77653892	     82.99866140	     47.91175834	      0.00000000	      0.00000000
